<?xml version="1.0" encoding="utf-8" ?><svg xmlns="http://www.w3.org/2000/svg" xmlns:xlink="http://www.w3.org/1999/xlink" width="1024" height="1024" viewBox="0 0 1024 1024" role="img" aria-label="Sentinel Bay County, CA — Tourism &amp; Convention Bureau"><title>Sentinel Bay County, CA — Tourism &amp; Convention Bureau</title><path fill="#FBFBFA" d="M0 0L1024 0L1024 1024L0 1024L0 0Z"/><path fill="#072363" d="M473.977 590.579C478.179 590.068 485.289 588.256 490.287 587.527C503 585.791 515.859 585.376 528.657 586.29C538.644 586.927 548.259 588.794 558.164 589.902C559.224 590.02 559.07 589.8 559.76 589.097C560.855 591.597 563.828 590.65 565.9 594.344C567.168 594.718 566.8 594.663 568.147 594.743C572.422 594.537 577.099 594.214 581.347 594.168C595.089 602.513 595.232 602.734 611.327 602.388C614.891 607.932 619.339 615.045 623.787 619.783C622.915 624.172 621.949 628.542 620.889 632.89C623.511 637.551 628.857 646.111 629.61 651.233C630.858 659.717 630.506 669.554 630.537 678.25C633.597 680.664 636.64 683.101 639.663 685.561C647.222 690.263 660.894 700.791 668.045 706.828C669.758 711.629 672.742 720.651 674.899 724.72L675.651 725.064C682.673 727.293 687.396 739.485 693.432 745.65C701.859 747.933 711.407 749.183 719.115 751.366C721.823 755.161 725.32 760.369 728.259 763.837C739.138 765.399 750.212 767.128 761.141 768.132C771.63 782.456 773.394 790.829 790.674 796.089C794.216 797.167 806.078 816.431 806.114 820.827C805.252 822.021 805.641 821.681 804.458 822.503C793.165 832.009 785.662 839.05 773.661 848.329C770.064 846.347 765.86 844.022 762.644 847.923C761.858 851.033 762.724 852.04 764.331 854.86C759.709 858.337 748.766 866.667 743.197 865.607C738.474 864.707 736.655 861.51 734.067 857.984C727.538 860.802 722.563 867.906 714.564 867.282C711.831 867.068 706.856 864.124 707.816 860.917C709.305 855.944 715.762 852.896 719.852 850.151C720.569 848.626 720.474 849.408 720.082 847.718C718.797 846.11 718.893 846.17 716.974 845.441C712.788 845.624 711.773 849.999 709.064 851.671C697.191 859 678.171 871.19 666.292 857.489C665.385 856.442 665.545 855.532 665.682 854.399C668.518 850.233 675.167 851.136 679.206 849.662C679.501 848.638 679.377 845.951 678.514 845.424C669.741 840.059 659.064 852.161 650.283 851.881C645.776 851.738 643.383 844.329 640.58 841.197C635.279 838.446 630.63 846.724 625.015 847.209C618.149 847.801 616.721 844.734 615.632 838.544C613.656 827.306 624.698 827.327 628.121 822.822C627.586 820.497 624.45 818.794 622.737 819.578C616.104 822.614 618.724 836.109 608.187 826.883C609.179 824.029 612.231 820.142 609.793 817.903C607.227 817.424 604.321 818.269 601.671 818.789C597.664 816.508 591.517 812.485 586.959 812.751C585.323 813.526 585.396 813.623 584.418 815.076C584.749 819.063 593.246 818.203 594.746 822.433C600.504 834.812 577.636 846.723 570.458 841.591C560.91 832.659 567.66 825.542 551.154 835.556C544.38 839.666 533.961 832.997 535.628 827.699C538.827 824.599 544.72 825.797 547.917 824.54C552.759 822.638 548.342 815.111 550.079 812.625C552.859 808.646 561.405 807.604 565.961 806.736C548.356 789.181 548.55 831.042 530.476 815.369C525.818 818.653 515.241 824.81 513.869 814.401C513.059 808.252 527.596 807.499 530.7 804.195C535.714 798.859 531.546 788.773 535.587 782.867C538.725 777.897 544.735 778.656 546.332 776.725C545.44 775.332 544.841 775.261 543.218 774.683C534.144 771.453 530.266 788.32 528.506 793.872C526.049 796.022 523.378 798.304 520.101 798.303C514.201 795.408 519.365 785.768 512.079 784.854C510.859 784.701 509.355 785.508 508.425 786.359C505.716 788.886 507.157 793.57 507.032 797.049C506.828 802.746 504.6 805.258 498.672 804.918C492.523 804.564 489.297 801.03 485.51 796.609C483.988 800 482.755 802.918 479.791 805.326C474.306 809.782 466.968 808.25 462.796 802.756C460.423 799.623 459.399 795.672 459.952 791.78C461.933 777.358 475.256 779.55 484.755 776.239C486.014 775.8 489.624 772.976 490.885 772.005C494.686 772.267 502.44 773.527 504.918 770.489C504.726 765.852 496.356 764.512 496.824 759.107C498.129 757 498.999 756.039 498.837 753.746L497.867 753.023C496.002 752.794 495.989 752.696 494.118 753.261C489.876 757.797 493.364 773.312 475.697 768.619C466.691 766.226 474.561 757.977 470.794 750.737C470.01 750.161 469.487 749.573 468.413 749.826C460.667 751.646 462.264 757.972 463.399 763.621C458.562 768.405 454.005 777.926 447.126 779.228C441.512 780.291 438.759 767.533 433.019 769.984C425.673 773.779 435.725 782.786 431.494 789.286C425.189 798.973 419.567 786.903 414.742 787.83C413.304 789.501 412.589 794.539 412.049 797.024C408.714 800.489 404.837 803.588 399.962 801.042C397.546 799.797 395.746 797.615 394.984 795.006C394.105 791.984 394.481 788.735 396.029 785.995C400.76 777.589 406.78 783.249 408.939 778.037C408.32 774.936 405.359 772.927 402.216 773.582C399.24 774.201 396.716 778.446 395.361 781.012C390.11 783.617 385.839 789.359 380.531 789.915C376.25 789.585 375.138 783.048 375.557 780.185C377.079 769.784 391.854 781.886 390.062 768.052C386.633 763.058 380.442 767.061 378.904 761.977C379.302 759.306 380.712 757.562 382.155 755.209C382.288 751.505 378.101 749.354 375.628 752.043C372.648 755.284 373.405 760.862 373.528 764.966C371.926 767.11 366.129 774.296 363.532 773.686C356.913 772.131 359.94 758.175 357.696 754.005C356.955 752.628 351.565 752.897 350.071 752.9C348.16 746.663 345.988 740.9 339.395 738.243C336.788 737.192 331.472 737.162 331.764 740.663C332.105 744.739 340.673 745.374 343.685 749.059C347.987 754.322 348.397 760.782 349.29 767.287C349.494 768.872 348.565 771.737 347.475 772.288C338.725 775.702 328.78 766.988 320.364 765.105C315.251 763.962 312.594 769.803 314.795 773.613C315.826 775.397 321.401 773.689 323.241 774.165C326.42 774.987 329.151 779.543 331.039 782.153C337.706 781.209 343.385 781.128 345.45 789.028C346.919 794.65 343.589 800.565 337.605 801.637C332.651 802.525 329.508 791.917 325.77 792.364C322.595 792.744 317.166 799.62 313.984 801.306C308.386 804.088 301.944 803.07 297.909 808.729C296.448 810.64 294.926 811.854 295.124 814.323C300.174 817.148 311.267 810.103 318.845 813.433C320.132 813.999 320.979 814.86 321.453 816.198C322.142 818.144 321.376 821.042 320.306 822.719C312.452 835.027 261.126 842.763 245.668 845.847C235.764 838.861 223.169 826.26 214.887 817.208C228.802 808.17 242.556 803.035 251.082 788.747C254.442 783.116 269.085 778.034 275.751 775.472C278.438 764.923 281.308 754.42 284.36 743.97C290.68 739.018 298.324 733.738 304.54 729.11C320.784 717.017 324.988 716.562 344.728 715.435C351.413 704.876 360.821 692.281 371.145 685.284C372.9 678.42 374.223 671.706 376.358 664.916C379.221 662.713 384.938 658.496 386.573 655.675C393.176 644.282 388.044 644.031 398.713 633.889C409.445 623.687 413.94 625.603 426.476 619.311C432.636 616.219 440.58 610.381 446.359 606.306C453.772 605.861 461.996 606.013 469.486 606.01C469.576 602.103 468.606 595.721 470.212 592.381C470.857 591.038 472.49 590.955 473.977 590.579Z"/><path fill="#D59D47" d="M639.663 685.561C647.222 690.263 660.894 700.791 668.045 706.828C669.758 711.629 672.742 720.651 674.899 724.72L675.651 725.064L675.375 725.65C676.005 737.015 689.494 760.773 694.386 772.079C699.298 783.43 705.229 796.835 711.003 807.654C713.47 812.276 724.409 823.403 728.49 827.988C717.706 825.826 706.904 823.75 696.087 821.759C691.359 812.65 680.64 790.535 675.005 783.585C668.547 775.62 657.562 766.74 650.376 757.392L650.016 756.916C649.723 749.126 649.357 741.338 648.917 733.555C645.126 730.244 641.447 726.807 637.885 723.251C639.702 721.171 641.765 719.016 643.652 716.98C642.671 707.6 641.602 694.498 639.663 685.561Z"/><path fill="#D59D47" d="M693.432 745.65C701.859 747.933 711.407 749.183 719.115 751.366C721.823 755.161 725.32 760.369 728.259 763.837C739.138 765.399 750.212 767.128 761.141 768.132C771.63 782.456 773.394 790.829 790.674 796.089C794.216 797.167 806.078 816.431 806.114 820.827C805.252 822.021 805.641 821.681 804.458 822.503C800.729 821.481 793.457 817.475 790.634 816.825C782.839 815.031 768.269 816.734 760.075 817.545C754.576 810.408 749.035 802.689 743.183 795.906C736.067 794.078 728.827 792.015 721.725 790.077C717.589 782.655 713.013 771.064 709.573 763.02C706.403 761.474 703.213 759.97 700.004 758.509C697.555 754.432 695.504 749.945 693.432 745.65Z"/><path fill="#D59D47" d="M473.977 590.579C478.179 590.068 485.289 588.256 490.287 587.527C503 585.791 515.859 585.376 528.657 586.29C538.644 586.927 548.259 588.794 558.164 589.902C559.224 590.02 559.07 589.8 559.76 589.097C560.855 591.597 563.828 590.65 565.9 594.344C567.168 594.718 566.8 594.663 568.147 594.743C555.388 595.831 542.606 596.628 529.81 597.134C522.844 597.475 515.245 597.699 508.368 598.354C500.745 599.08 492.69 603.412 485.273 605.229C480.297 606.448 474.652 606.164 469.486 606.01C469.576 602.103 468.606 595.721 470.212 592.381C470.857 591.038 472.49 590.955 473.977 590.579Z"/><path fill="#D59D47" d="M486.734 693.126C496.403 694.146 527.411 698.046 534.729 701.628C545.165 706.736 555.081 716.133 564.001 723.546C565.485 732.145 566.674 741.628 567.862 750.307C574.001 755.158 581.611 760.112 588.167 764.568C590.498 771.879 592.14 780.289 593.756 787.824C588.255 785.148 579.95 770.55 574.912 767.171C564.928 760.475 551.64 755.43 540.746 749.826C537.711 739.285 535.105 727.926 532.666 717.224C518.124 709.961 500.335 701.535 486.734 693.126Z"/><path fill="#D59D47" d="M586.322 734.419C591.038 737.425 594.906 743.547 599.716 746.323C604.953 749.345 610.901 752.008 616.356 754.699C626.499 759.672 636.565 764.799 646.553 770.077C652.285 782.018 658.031 797.08 663.824 809.79C659.523 807.983 652.062 797.937 647.703 795.161C639.323 789.823 627.239 786.236 617.73 782.957C612.305 775.618 606.164 765.424 600.879 757.648C597.185 752.212 588.613 739.576 586.322 734.419Z"/><path fill="#D59D47" d="M596.228 676.69C600.16 679.475 616.924 702.477 618.493 707.424C623.202 722.268 629.273 733.57 636.061 747.61C630.236 745.896 614.077 737.309 607.237 734.118C603.733 715.193 599.343 695.525 596.228 676.69Z"/><path fill="#D59D47" d="M486.102 613.528L487.463 613.647L487.798 614.256C487.102 617.293 479.061 626.456 476.739 629.374L476.827 634.807C465.206 638.587 462.742 641.589 454.174 650.152L457.88 668.537C453.761 674.511 449.925 680.104 446.111 686.269C445.361 687.384 445.344 687.893 444.375 688.131C442.165 684.665 446.892 674.437 448.768 671.135C448.534 662.792 447.726 653.052 446.908 644.701C453.966 632.42 472.879 617.207 486.102 613.528Z"/><path fill="#D59D47" d="M517.016 634.023C530.133 636.5 534.374 639.142 544.459 647.698C544.606 653.435 545.312 659.775 545.524 665.769C558.523 673.537 559.352 676.008 564.862 690.275C562.14 689.127 540.215 670.215 534.579 666.138C534.498 661.585 532.932 652.073 532.267 647.251C527.553 642.637 521.56 638.702 517.016 634.023Z"/><path fill="#D59D47" d="M596.508 617.304C603.356 622.078 607.555 637.404 609.949 644.783C611.037 648.139 615.277 654.056 617.455 657.103C617.67 667.344 619.14 681.114 619.869 691.594C617.776 689.602 616.04 683.976 614.512 681.324C602.587 660.637 599.982 640.804 596.508 617.304Z"/><path fill="#D59D47" d="M436.444 619.038C436.766 619.374 436.558 619.11 436.737 620.001C435.34 623.044 432.614 626.685 430.642 629.512C434.529 628.774 438.671 627.736 442.548 626.841C432.833 633.303 427.751 636.078 424.051 647.165C422.389 648.375 411.357 653.57 408.191 655.345C405.197 657.125 401.96 658.856 398.899 660.553C408.187 646.381 413.506 648.792 418.376 629.716C425.676 626.097 429.78 623.524 436.444 619.038Z"/><path fill="#D59D47" d="M425.496 678.921C426.916 679.653 428.176 680.735 428.737 682.26C426.779 685.299 412.469 690.065 409.619 692.819C401.172 700.98 407.736 701.501 395.344 707.522L393.796 708.193L393.227 707.676C393.392 703.812 398.757 693.356 400.607 689.388C407.424 686.086 418.028 682.152 425.496 678.921Z"/><path fill="#D59D47" d="M556.755 602.558C559.245 602.379 559.818 601.991 561.227 604.107C561.691 608.104 558.323 615.939 557.072 620.791C564.646 626.924 565.585 627.215 568.091 636.405C566.592 635.526 565.075 634.544 563.598 633.62C560.765 631.682 555.006 627.854 552.653 625.679L552.444 612.567C548.625 610.619 546.772 609.203 543.615 606.431C548.204 604.926 552.027 603.651 556.755 602.558Z"/><path fill="#DDAA5A" d="M429.656 652.42L430.418 652.787C430.18 656.506 422.779 660.083 421.074 664C419.691 667.177 420.818 669.212 421.875 672.413C419.271 673.936 416.638 675.832 414.134 677.546C414.827 672.992 414.653 668.734 414.42 664.157C411.227 666.62 408.671 668.949 405.679 671.668C402.457 674.793 399.71 677.263 396.286 680.167L401.277 665.464C411.69 661.571 420.072 657.902 429.656 652.42Z"/><path fill="#DDAA5A" d="M386.568 682.622L386.72 682.784C386.639 684.571 381.024 688.082 379.613 690.443C378.272 692.687 378.051 693.474 377.175 695.892C374.736 697.595 371.704 699.416 369.158 701.027C367.659 699.173 368.81 693.921 369.164 691.556C375.116 688.618 380.759 685.833 386.568 682.622Z"/><path fill="#FBFBFA" d="M429.913 748.241C432.387 747.421 435.066 748.714 435.963 751.162C436.859 753.609 435.65 756.327 433.231 757.299C431.599 757.955 429.738 757.67 428.376 756.556C427.014 755.442 426.367 753.675 426.687 751.944C427.007 750.214 428.243 748.795 429.913 748.241Z"/><path fill="#FBFBFA" d="M296.083 774.974C301.023 774.999 308.194 777.301 307.674 783.409L307.024 783.898L305.783 783.266C301.661 780.288 301.458 780.463 296.488 779.844C294.913 779.647 293.675 779.531 292.837 778.38C293.294 776.668 294.582 776.072 296.083 774.974Z"/><path fill="#FBFBFA" d="M744.644 849.759C746.6 849.421 748.475 850.68 748.904 852.617C749.333 854.555 748.164 856.487 746.249 857.006C744.927 857.364 743.516 856.967 742.576 855.972C741.636 854.977 741.319 853.545 741.751 852.246C742.184 850.947 743.295 849.992 744.644 849.759Z"/><path fill="#FBFBFA" d="M454.511 738.768C456.31 737.949 458.435 738.711 459.304 740.487C460.173 742.262 459.472 744.407 457.721 745.327C456.544 745.945 455.124 745.875 454.014 745.143C452.903 744.412 452.278 743.134 452.381 741.809C452.485 740.483 453.3 739.318 454.511 738.768Z"/><path fill="#FBFBFA" d="M309.55 787.795C310.603 787.201 311.893 787.219 312.929 787.842C313.964 788.464 314.586 789.595 314.556 790.803C314.526 792.011 313.849 793.11 312.784 793.68C311.162 794.549 309.142 793.95 308.256 792.337C307.369 790.724 307.947 788.698 309.55 787.795Z"/><path fill="#FBFBFA" d="M291.671 800.759C293.403 800.65 294.908 801.939 295.064 803.668C295.221 805.396 293.973 806.936 292.249 807.139C291.092 807.276 289.951 806.774 289.271 805.827C288.591 804.88 288.478 803.639 288.977 802.586C289.476 801.532 290.508 800.833 291.671 800.759Z"/><path fill="#FBFBFA" d="M689.318 847.223C690.359 846.864 691.514 847.092 692.341 847.82C693.168 848.548 693.54 849.665 693.315 850.743C693.091 851.822 692.304 852.697 691.256 853.035C689.657 853.55 687.942 852.682 687.41 851.088C686.879 849.495 687.73 847.771 689.318 847.223Z"/><path fill="#FBFBFA" d="M398.513 755.771C399.489 755.382 400.599 755.552 401.414 756.215C402.229 756.878 402.622 757.93 402.44 758.965C402.257 760 401.529 760.855 400.537 761.2C399.049 761.717 397.421 760.951 396.87 759.475C396.32 757.999 397.05 756.354 398.513 755.771Z"/><path fill="#FBFBFA" d="M615.665 804.793C617.145 804.513 618.586 805.44 618.945 806.903C619.305 808.367 618.457 809.856 617.015 810.293C616.01 810.598 614.92 810.323 614.18 809.579C613.44 808.834 613.171 807.742 613.483 806.739C613.794 805.737 614.633 804.988 615.665 804.793Z"/><path fill="#FBFBFA" d="M643.844 833.228C644.774 832.843 645.841 832.998 646.624 833.633C647.406 834.267 647.778 835.279 647.592 836.27C647.407 837.26 646.694 838.069 645.736 838.378C644.334 838.83 642.825 838.094 642.317 836.712C641.809 835.329 642.483 833.792 643.844 833.228Z"/><path fill="#FBFBFA" d="M371.483 739.271C372.714 738.546 374.299 738.944 375.042 740.164C375.784 741.385 375.409 742.975 374.199 743.735C373.401 744.236 372.395 744.268 371.566 743.82C370.738 743.371 370.215 742.512 370.198 741.57C370.18 740.628 370.672 739.749 371.483 739.271Z"/><path fill="#FBFBFA" d="M508.692 753.778C509.589 752.97 510.966 753.025 511.797 753.901C512.627 754.777 512.608 756.155 511.754 757.008C511.181 757.58 510.344 757.796 509.566 757.572C508.788 757.349 508.193 756.721 508.011 755.932C507.83 755.144 508.09 754.319 508.692 753.778Z"/><path fill="#FBFBFA" d="M678.981 835.726C680.094 835.498 681.18 836.217 681.403 837.331C681.627 838.444 680.902 839.527 679.788 839.745C678.681 839.962 677.606 839.243 677.384 838.137C677.162 837.031 677.876 835.953 678.981 835.726Z"/><path fill="#072363" d="M259.064 856.153C287.75 853.071 316.472 848.619 340.805 831.723C349.463 826.094 355.866 817.484 364.76 812.264C368.02 810.35 374.092 811.239 376.875 813.742C382.285 818.61 382.581 827.052 382.488 833.76C387.885 830.694 393.263 827.346 399.715 829.295C403.91 830.562 408.315 835.323 412.847 833.226C418.189 830.755 417.948 806.525 437.975 812.481C441.558 813.546 444.948 816.14 446.738 819.443C447.415 820.691 447.941 822.066 448.484 823.377C447.499 826.798 443.311 841.018 449.201 840.338C462.544 838.799 475.681 815.319 490.586 828.581C494.766 832.3 497.201 840.366 499.206 846.17C503.565 846.496 507.285 846.677 511.585 847.654C515.789 858.006 520.028 861.169 531.171 856.311C540.638 852.183 555.522 839.827 562.307 854.882C563.664 857.973 564.498 861.269 564.775 864.633C567.295 863.98 569.879 863.385 572.07 862.154C578.819 858.364 599.994 840.514 603.319 856.575C603.968 859.711 603.268 863.449 606.128 865.537C609.529 866.543 615.425 865.481 619.186 865.026C622.5 868.142 625.96 871.88 630.955 871.452C639.468 870.723 643.794 865.464 653.23 867.418C656.666 871.116 650.839 879.797 661.182 880.891C669.268 881.745 677.217 870.891 683.41 877.054C683.744 877.386 686.288 881.647 686.949 882.616C701.069 882.733 709.195 877.667 723.344 877.287L728.027 881.631C723.589 884.229 719.233 886.868 714.599 889.104C669.31 915.787 610.532 932.99 558.501 939.156C471.539 949.112 383.656 931.3 307.432 888.27C293.155 880.213 279.332 871.997 266.45 861.831C263.636 859.862 261.703 858.357 259.064 856.153Z"/><path fill="#D59D47" d="M259.064 856.153C287.75 853.071 316.472 848.619 340.805 831.723C349.463 826.094 355.866 817.484 364.76 812.264C368.02 810.35 374.092 811.239 376.875 813.742C382.285 818.61 382.581 827.052 382.488 833.76C387.885 830.694 393.263 827.346 399.715 829.295C403.91 830.562 408.315 835.323 412.847 833.226C418.189 830.755 417.948 806.525 437.975 812.481C441.558 813.546 444.948 816.14 446.738 819.443C447.415 820.691 447.941 822.066 448.484 823.377C447.499 826.798 443.311 841.018 449.201 840.338C462.544 838.799 475.681 815.319 490.586 828.581C494.766 832.3 497.201 840.366 499.206 846.17C503.565 846.496 507.285 846.677 511.585 847.654C515.789 858.006 520.028 861.169 531.171 856.311C540.638 852.183 555.522 839.827 562.307 854.882C563.664 857.973 564.498 861.269 564.775 864.633C567.295 863.98 569.879 863.385 572.07 862.154C578.819 858.364 599.994 840.514 603.319 856.575C603.968 859.711 603.268 863.449 606.128 865.537C609.529 866.543 615.425 865.481 619.186 865.026C622.5 868.142 625.96 871.88 630.955 871.452C639.468 870.723 643.794 865.464 653.23 867.418C656.666 871.116 650.839 879.797 661.182 880.891C669.268 881.745 677.217 870.891 683.41 877.054C683.744 877.386 686.288 881.647 686.949 882.616C701.069 882.733 709.195 877.667 723.344 877.287L728.027 881.631C723.589 884.229 719.233 886.868 714.599 889.104C703.099 888.46 688.821 894.279 679.322 890.097C669.228 895.152 665.279 897.402 654.028 899.198C660.285 896.65 672.54 891.77 676.939 887.192C677.106 885.298 677.317 886.128 676.446 884.581C674.293 883.563 672.368 884 670.18 884.797C658.468 889.06 661.21 891.886 649.273 888.272C605.051 904.874 585.589 906.39 538.774 907.613L536.083 907.507L536.061 906.339C544.378 904.783 560.751 904.115 570.447 902.76C599.069 898.762 619.553 892.201 645.975 881.411L643.908 875.565C625.429 879.94 630.274 882.689 611.198 874.022C602.032 877.862 598.502 879.644 588.804 881.519L599.712 875.977C593.744 865.146 600.45 850.1 583.01 863.6C574.795 869.96 563.469 881.19 554.191 870.883C526.445 885.362 492.587 896.197 461.177 897.57L458.763 897.517C456.244 897.481 456.039 897.71 453.865 896.53C461.395 894.765 472.402 893.441 480.573 891.828C499.353 888.202 517.679 882.525 535.221 874.899C540.688 872.561 546.918 870.005 551.497 865.855C552.696 864.769 552.454 863.786 552.427 862.435C546.942 853.47 516.039 879.117 506.699 868.043C504.321 865.224 503.553 862.129 502.391 858.794C495.653 865.478 489.166 871.018 480.205 874.325C478.386 874.996 475.354 876.952 473.625 876.719C482.857 871.978 488.615 867.882 495.699 860.431C493.991 859.019 492.237 857.44 490.554 855.98C463.431 881.344 421.415 889.559 385.856 894.276L385.604 893.161C414.237 887.79 444.333 878.873 468.702 862.314C473.824 858.834 488.177 846.876 482.509 839.196C479.621 835.511 473.25 840.881 470.801 842.842C460.717 850.915 456.248 854.186 443.106 854.063C434.708 862.907 427.728 866.396 416.523 870.466C428.302 863.944 430.781 861.68 439.992 851.735C431.588 844.178 437.244 837.693 438.665 828.745C439.046 826.338 436.254 823.239 433.689 824.042C428.886 825.545 426.963 831.345 424.792 835.344C419.615 846.533 413.588 855.2 403.769 862.981C390.355 873.61 374.457 877.296 357.977 880.292L356.939 878.806C382.933 872.615 392.969 865.694 411.218 847.105C403.124 845.369 402.367 844.159 396.468 838.166C388.635 843.559 386.694 843.877 377.515 843.403C351.701 863.796 336.633 866.322 304.791 871.237L303.796 870.38C317.892 867.149 364.778 855.825 372.493 837.762C372.429 837.912 373.545 828.221 373.864 826.765C372.671 824.549 370.131 818.65 367.21 821.153C358.409 828.694 352.327 835.482 342.282 841.881C318.68 856.913 293.553 860.719 266.45 861.831C263.636 859.862 261.703 858.357 259.064 856.153Z"/><path fill="#8C817B" d="M461.177 897.57C457.522 898.213 435.698 899.351 432.241 899.049C437.748 897.919 448.276 896.503 453.865 896.53C456.039 897.71 456.244 897.481 458.763 897.517L461.177 897.57Z"/><path fill="#3B486A" d="M525.46 906.624L536.061 906.339L536.083 907.507L538.774 907.613C535.267 908.387 518.434 908.112 514.438 907.663L514.703 907.33C518.086 906.891 522.012 906.791 525.46 906.624Z"/><path fill="#DDAA5A" d="M525.46 906.624L536.061 906.339L536.083 907.507C533.179 907.635 527.797 908.169 525.46 906.624Z"/><path fill="#DDAA5A" d="M357.977 880.292C354.127 880.821 350.294 881.46 346.416 881.036C350.137 880.038 353.132 879.483 356.939 878.806L357.977 880.292Z"/><path fill="#8C817B" d="M375.33 895.245C379.148 893.83 381.585 893.655 385.604 893.161L385.856 894.276C383.414 894.703 378.009 895.011 375.33 895.245Z"/><path fill="#656C7C" d="M304.791 871.237C302.811 871.509 300.339 871.895 298.534 871.175C300.373 870.327 301.714 870.469 303.796 870.38L304.791 871.237Z"/><path fill="#D59D47" d="M515.772 341.247C514.24 338.64 511.882 335.396 512.555 332.431C514.337 329.736 519.488 328.54 522.192 330.287C524.712 333.635 522.822 338.058 521.425 341.513C524.186 347.028 533.396 348.049 537.837 352.058C541.986 355.802 543.414 361.327 546.639 364.905C547.894 365.281 548.545 365.46 549.759 365.99C550.24 367.907 550.325 367.027 549.719 368.733C547.32 370.264 545.644 369.88 545.463 371.499C544.494 380.139 545.174 390.069 545.538 398.682C554.457 401 560.266 402.673 568.54 407.194C568.151 413.639 567.77 418.858 568.107 425.322C569.851 427.363 571.21 428.96 570.45 431.772C569.208 432.504 569.843 432.444 568.557 432.259C561.451 433.998 555.462 436.228 551.395 442.939C551.039 443.537 550.701 444.145 550.383 444.764C549.676 447.663 549.848 451.152 549.852 454.179C550.34 464.842 551.139 475.489 552.247 486.106L551.525 486.742C543.939 485.085 538.13 483.611 530.275 482.759C512.66 480.847 498.47 484.473 481.788 486.729C483.232 474.664 483.769 460.613 484.805 448.314L484.286 444.356C481.069 436.604 473.276 434.509 465.9 432.463C461.996 428.692 467.12 425.503 466.663 420.2C466.42 417.376 465.457 408.167 467.682 406.696C474.016 402.507 482.433 400.75 489.804 398.957C490.115 392.075 491.063 377.162 489.469 370.834C488.389 370.017 487.39 370.06 486.021 369.893C484.764 368.654 484.641 367.804 485.214 366.021C486.331 365.3 486.857 365.532 488.225 365.644C489.913 364.565 490.603 361.677 491.663 359.822C496.15 351.968 503.832 348.409 511.993 345.986C513.243 344.311 514.327 342.766 515.772 341.247Z"/><path fill="#072363" d="M484.805 448.314C507.28 440.961 526.79 440.508 549.666 447.883C549.69 449.731 549.644 452.41 549.852 454.179C550.34 464.842 551.139 475.489 552.247 486.106L551.525 486.742C543.939 485.085 538.13 483.611 530.275 482.759C512.66 480.847 498.47 484.473 481.788 486.729C483.232 474.664 483.769 460.613 484.805 448.314Z"/><path fill="#D59D47" d="M519.633 456.917C522.169 456.969 524.383 459.244 526.245 460.934C525.99 466.572 526.298 472.147 526.571 477.78C524.484 477.607 522.23 477.57 520.125 477.494L511.982 477.478C512.165 473.775 512.342 470.071 511.915 466.387C511.174 459.982 514.669 459.169 519.633 456.917Z"/><path fill="#FBFBFA" d="M517.799 460.941C518.951 461.012 520.29 461.09 521.351 461.523C524.839 462.944 525.017 471.209 523.41 473.795L522.125 474.015L515.161 473.865C514.986 469.293 513.912 463.995 517.799 460.941Z"/><path fill="#072363" d="M558.887 427.346C561.421 428.353 567.1 430.278 568.557 432.259C561.451 433.998 555.462 436.228 551.395 442.939C551.039 443.537 550.701 444.145 550.383 444.764L544.463 442.761C548.312 434.887 551.372 431.724 558.887 427.346Z"/><path fill="#072363" d="M475.148 427.354C483.109 432.299 484.966 433.965 488.961 442.763C487.474 443.307 485.795 443.984 484.286 444.356C481.069 436.604 473.276 434.509 465.9 432.463C469.433 430.183 471.335 429.165 475.148 427.354Z"/><path fill="#FBFBFA" d="M516.212 368.419C519.286 368.59 521.51 368.764 523.589 371.044C525.031 375.318 525.8 390.744 524.708 395.05C523.031 395.847 520.888 395.555 518.967 395.501L510.527 395.514C510.36 389.132 509.571 379.663 510.956 373.561C511.6 370.723 513.833 369.737 516.212 368.419Z"/><path fill="#FBFBFA" d="M532.185 369.507C544.512 368.968 541.274 382.233 541.585 390.407C541.669 392.611 541.417 395.39 541.14 397.559C539.78 398.345 539.877 398.013 537.932 397.764C534.591 397.029 531.017 396.396 527.641 395.741C527.468 389.496 526.904 381.198 527.801 375.129C528.269 371.96 529.708 371.163 532.185 369.507Z"/><path fill="#FBFBFA" d="M499.608 369.373C508.051 370.329 507.727 375.161 507.676 382.477C507.645 387.024 507.507 391.632 507.424 396.183L501.311 396.734L494.581 398.129C494.155 388.766 492.029 376.211 499.608 369.373Z"/><path fill="#072363" d="M508.946 420.505L525.506 420.523C524.72 425.828 523.827 431.117 522.827 436.387C521.375 439.948 515.062 438.447 511.71 438.182C510.673 432.308 509.751 426.415 508.946 420.505Z"/><path fill="#FBFBFA" d="M554.995 403.238C557.069 403.183 556.114 402.929 557.917 404.177L560.927 405.288L562.568 406.257L565.66 408.234C566.314 411.803 566.859 419.352 565.577 422.74L564.797 423.266C563.865 422.896 563.873 422.968 563.063 422.409C562.694 422.202 561.672 421.824 561.238 421.651C559.731 421.445 558.475 420.997 557.01 420.568L555.05 420.409C554.362 420.142 553.03 419.695 552.566 419.152C550.764 417.042 550.683 404.686 552.244 403.177L554.995 403.238Z"/><path fill="#FBFBFA" d="M554.995 403.238C557.069 403.183 556.114 402.929 557.917 404.177C556.115 406.792 556.895 416.982 557.01 420.568L555.05 420.409C554.362 420.142 553.03 419.695 552.566 419.152C550.764 417.042 550.683 404.686 552.244 403.177L554.995 403.238Z"/><path fill="#DDAA5A" d="M554.995 403.238C557.069 403.183 556.114 402.929 557.917 404.177C556.115 406.792 556.895 416.982 557.01 420.568L555.05 420.409C555.949 418.329 555.167 406.352 554.995 403.238Z"/><path fill="#FBFBFA" d="M562.568 406.257L565.66 408.234C566.314 411.803 566.859 419.352 565.577 422.74L564.797 423.266C563.865 422.896 563.873 422.968 563.063 422.409C562.659 420.004 561.998 408.398 562.568 406.257Z"/><path fill="#DDAA5A" d="M560.927 405.288L562.568 406.257C561.998 408.398 562.659 420.004 563.063 422.409C562.694 422.202 561.672 421.824 561.238 421.651C560.739 417.883 560.81 409.019 560.927 405.288Z"/><path fill="#072363" d="M504.614 420.781L505.704 421.374C506.537 423.287 508.164 435.28 508.747 438.346C506.25 438.637 501.607 439.367 499.455 438.646C497.578 434.703 494.7 426.556 493.017 422.203C496.388 421.535 501.092 421.159 504.614 420.781Z"/><path fill="#072363" d="M529.022 420.867C532.961 421.434 537.247 421.847 541.226 422.308C538.725 428.048 537.237 431.896 535.379 437.898L534.965 438.726C532.741 440.219 528.068 438.849 525.171 438.339C526.575 432.542 527.859 426.717 529.022 420.867Z"/><path fill="#072363" d="M544.466 422.847C548.45 423.794 552.418 424.813 556.366 425.903C550.408 430.464 549.505 429.945 544.897 436.517L542.305 441.676L537.169 440.046C539.712 434.307 542.242 428.721 544.466 422.847Z"/><path fill="#072363" d="M487.493 423.554L488.699 423.539C490.921 425.463 495.689 436.716 497.133 439.901C494.419 441.052 493.119 442.3 490.91 440.266C487.155 432.601 484.997 431.441 478.048 426.452C481.178 425.561 484.377 424.523 487.493 423.554Z"/><path fill="#FBFBFA" d="M545.931 400.979C547.491 401.485 547.458 401.407 548.724 402.414C550.607 406.152 549.923 413.911 549.801 418.338C548.163 418.085 547.78 418.209 546.58 417.093C544.742 413.048 545.758 405.776 545.931 400.979Z"/><path fill="#FBFBFA" d="M480.165 402.954C480.893 403.014 482.602 403.021 482.778 403.617C484.071 408.004 483.627 415.932 483.017 420.389C482.518 420.318 482.019 420.248 481.519 420.177C478.381 418.716 478.89 405.407 480.165 402.954Z"/><path fill="#FBFBFA" d="M476.235 404.708C478.677 406.307 477.848 417.328 477.419 420.372C477.313 421.128 475.967 421.415 475.243 421.72C472.719 420.071 473.541 410.668 473.857 407.703C474.041 405.985 475.002 405.593 476.235 404.708Z"/><path fill="#FBFBFA" d="M487.447 400.762L488.571 401.161C489.466 402.991 488.629 413.169 488.647 415.801C488.664 418.231 488.426 417.966 486.981 419.254C486.311 419.075 486.32 419.001 485.708 418.634C484.668 413.973 484.585 404.675 487.447 400.762Z"/><path fill="#FBFBFA" d="M470.235 407.314C473.004 409.068 472.575 421.608 471.115 423.951C467.446 420.937 468.85 417.336 468.854 412.946C468.856 410.556 468.945 409.35 470.235 407.314Z"/><path fill="#072363" d="M481.788 486.729C498.47 484.473 512.66 480.847 530.275 482.759C538.13 483.611 543.939 485.085 551.525 486.742L552.247 486.106C552.622 488.169 552.543 489.04 552.498 491.169C553.991 504.048 554.967 520.092 555.707 533.153C556.221 535.495 556.459 538.187 556.503 540.586C556.501 555.098 558.548 574.436 559.76 589.097C559.07 589.8 559.224 590.02 558.164 589.902C548.259 588.794 538.644 586.927 528.657 586.29C515.859 585.376 503 585.791 490.287 587.527C485.289 588.256 478.179 590.068 473.977 590.579C474.397 587.638 474.639 584.272 474.798 581.288C475.512 567.867 477.215 554.119 477.475 540.698C477.532 539.109 477.73 537.415 477.881 535.82C479.522 527.242 480.777 501.882 481.502 492.129C481.473 490.094 481.597 488.766 481.788 486.729Z"/><path fill="#072363" d="M481.788 486.729C498.47 484.473 512.66 480.847 530.275 482.759C538.13 483.611 543.939 485.085 551.525 486.742L552.247 486.106C552.622 488.169 552.543 489.04 552.498 491.169C553.991 504.048 554.967 520.092 555.707 533.153L555.157 534.159C551.352 534.224 545.677 532.932 541.784 532.337C522.774 529.433 502.627 529.549 483.929 534.272C481.965 534.768 479.844 535.432 477.881 535.82C479.522 527.242 480.777 501.882 481.502 492.129C481.473 490.094 481.597 488.766 481.788 486.729Z"/><path fill="#D59D47" d="M481.788 486.729C498.47 484.473 512.66 480.847 530.275 482.759C538.13 483.611 543.939 485.085 551.525 486.742L552.247 486.106C552.622 488.169 552.543 489.04 552.498 491.169C532.619 486.668 501.183 485.637 481.502 492.129C481.473 490.094 481.597 488.766 481.788 486.729Z"/><path fill="#D59D47" d="M477.881 535.82C479.844 535.432 481.965 534.768 483.929 534.272C502.627 529.549 522.774 529.433 541.784 532.337C545.677 532.932 551.352 534.224 555.157 534.159L555.707 533.153C556.221 535.495 556.459 538.187 556.503 540.586C530.583 533.872 503.375 533.91 477.475 540.698C477.532 539.109 477.73 537.415 477.881 535.82Z"/><path fill="#D59D47" d="M520.345 541.399C523.518 543.221 530.717 546.863 532.392 549.711C530.981 553.052 531.498 574.792 532.351 577.379L532.896 579.012C532.987 579.269 533.078 579.525 533.17 579.782C530.65 580.462 524.301 580.26 521.366 580.263C517.725 580.434 511.865 580.915 508.451 580.41L508.171 579.78C508.137 579.831 509.611 577.578 509.614 577.554C510.437 569.637 509.996 561.037 510.05 553.021C510.058 551.834 509.115 549.84 508.829 549.259C511.013 547.011 517.446 543.268 520.345 541.399Z"/><path fill="#FBFBFA" d="M520.861 545.981C524.175 548.397 523.628 549.091 527.837 550.901C528.993 558.245 528.635 570.05 528.578 577.895L521.022 577.812L512.607 578.016C512.45 569.306 512.436 560.593 512.567 551.883C515.098 549.814 518.135 547.841 520.861 545.981Z"/><path fill="#D59D47" d="M583.099 201.655C595.956 198.038 603.894 191.962 613.348 182.561C607.974 194.787 601.771 197.276 590.503 203.846C603.911 200.044 606.741 197.341 618.447 189.501C610.163 199.149 608.808 199.695 597.858 206.297C605.348 204.305 608.959 202.997 615.971 199.712C609.723 206.248 609 205.948 601.483 210.575C603.215 210.783 607.627 209.659 609.626 209.238C607.369 211.175 605.936 212.42 603.178 213.613C601.989 214.127 598.811 214.974 598.293 215.692C599.651 216.307 599.153 216.109 600.764 216.148L600.78 216.649C586.754 224.497 578.135 221.852 565.781 236.058C558.279 244.684 542.726 255.597 532.027 259.658C537.453 262.923 536.633 262.418 542.154 264.05C548.018 265.783 558.876 262.866 561.763 265.054C560.705 267.289 558.268 267.123 558.261 268.625L560.931 268.648L560.999 269.174L559.037 270.575L561.811 272.254C559.704 275.46 556.449 273.229 556.38 276.98C553.644 278.296 538.785 274.227 534.498 273.55C528.541 272.609 524.425 276.33 520.752 276.255C500.161 275.834 478.3 279.226 461.492 264.882C442.865 266.612 422.039 270.257 404.295 271.038C414.537 264.632 425.402 264.354 434.418 259.554C447.19 252.754 451.565 243.452 468.904 248.431C471.599 249.205 473.416 249.048 475.823 251.142C477.034 253.327 476.306 254.533 475.405 256.653L476.307 256.166L475.975 255.322L476.683 255.884L480.844 252.775C464.036 232.981 449.917 237.005 428.953 225.129C426.77 223.892 422.641 218.693 420.595 216.645L423.497 214.274L424.378 212.803L424.894 212.294C427.703 212.298 427.811 211.961 430.442 211.05C432.458 213.148 434.027 211.596 436.686 211.17C436.92 211.149 437.155 211.128 437.39 211.107C437.08 208.601 435.643 202.523 436.949 200.48C439.277 203.836 440.395 208.392 443.139 212.82L443.594 213.547C443.44 210.23 443.566 206.974 443.65 203.656C452.419 223.681 459.039 218.495 476.3 224.7C484.657 227.703 495.873 234.493 503.451 239.271C496.471 243.857 488.98 248.276 481.819 252.628C499.819 247.426 514.627 237.909 528.506 225.322C532.237 221.939 536.25 215.599 540.269 213.437C555.833 205.064 566.735 206.392 580.336 193.988C579.119 195.571 576.558 198.569 576.026 200.298C578.495 200.767 578.984 200.996 581.272 202.077C582.359 201.97 582.224 202.129 583.099 201.655Z"/><path fill="#FBFBFA" d="M451.09 258.612C454.744 257.798 462.471 252.753 464.622 256.9C463.15 261.498 450.575 265.702 447.14 261.194C447.445 259.685 447.52 260.032 448.858 258.761L451.09 258.612Z"/><path fill="#FBFBFA" d="M448.858 258.761C446.229 258.362 446.337 258.789 444.557 257.364C444.815 254.51 449.325 254.484 451.233 256.087C451.517 257.354 451.423 257.328 451.09 258.612L448.858 258.761Z"/><path fill="#072363" d="M755.571 175.747C770.055 173.456 783.671 183.287 786.054 197.755C788.437 212.223 778.694 225.902 764.241 228.378C749.657 230.876 735.827 221.025 733.422 206.425C731.017 191.826 740.957 178.059 755.571 175.747Z"/><path fill="#FBFBFA" d="M757.052 182.228C768.02 180.741 778.101 188.47 779.511 199.448C780.92 210.426 773.119 220.452 762.131 221.784C751.253 223.102 741.35 215.396 739.954 204.527C738.559 193.659 746.194 183.701 757.052 182.228Z"/><path fill="#072363" d="M253.073 179.75C267.555 177.418 281.197 187.236 283.584 201.709C285.971 216.182 276.204 229.861 261.74 232.302C247.199 234.756 233.432 224.926 231.032 210.376C228.632 195.825 238.514 182.095 253.073 179.75Z"/><path fill="#FBFBFA" d="M255.162 186.249C265.988 185.047 275.78 192.744 277.167 203.548C278.554 214.352 271.025 224.273 260.246 225.844C253.109 226.885 245.965 223.994 241.559 218.282C237.154 212.571 236.173 204.927 238.992 198.287C241.812 191.648 247.993 187.046 255.162 186.249Z"/><path fill="#072363" d="M124.555 372.082C133.246 371.364 135.727 372.965 140.115 380.148C143 377.648 145.993 375.105 149.963 375.059C158.661 374.957 164.583 381.3 164.323 389.943C164.157 395.49 163.311 402.121 159.705 406.572C159.126 407.286 158.742 407.001 157.823 406.973C142.18 402.461 126.6 397.735 111.087 392.798C113.92 383.358 115.032 376.77 124.555 372.082Z"/><path fill="#FBFBFA" d="M148.456 382C160.824 382.052 158.296 391.016 155.898 399.423L151.379 398.182L139.512 394.898C141.945 388.035 142.375 386.117 148.456 382Z"/><path fill="#FBFBFA" d="M126.775 378.427C132.015 379.001 135.215 379.984 136.098 386.233C136.422 388.522 135.486 390.19 134.04 391.921C132.109 392.681 132.293 392.299 129.827 391.769C127.33 391.146 121.868 389.001 119.228 388.045C121.274 382.513 121.751 381.406 126.775 378.427Z"/><path fill="#072363" d="M856.704 645.101C867.853 644.698 869.741 649.045 873.26 658.36C874.069 657.867 874.895 657.403 875.737 656.968C891.466 649.039 904.218 674.083 881.415 683.455C872.695 683.703 871.003 679.564 867.114 672.709C862.076 674.837 856.658 676.634 851.451 673.83C844.072 669.857 842.416 659.085 846.476 652.206C848.937 648.037 852.193 646.331 856.704 645.101Z"/><path fill="#FBFBFA" d="M856.664 651.782C861.303 650.44 866.158 653.079 867.556 657.701C868.953 662.324 866.372 667.211 861.767 668.663C858.738 669.619 855.43 668.872 853.105 666.708C850.781 664.544 849.799 661.297 850.536 658.208C851.272 655.119 853.613 652.664 856.664 651.782Z"/><path fill="#FBFBFA" d="M879.9 660.897C890.936 663.448 889.72 672.199 880.669 677.055C869.544 676.573 870.22 666.102 879.9 660.897Z"/><path fill="#072363" d="M809.958 212.931C817.372 220.794 830.997 234.191 814.037 244.074C809.741 246.578 804.813 245.054 800.358 243.375C798.09 252.363 796.468 261.253 794.746 270.355L789.209 265.148C789.849 260.782 791.29 255.221 792.3 250.832C793.169 247.78 796.342 239.427 792.151 238.475C788.251 239.7 779.863 248.351 776.332 251.675L771.606 246.655C783.835 235.508 797.369 224.312 809.958 212.931Z"/><path fill="#FBFBFA" d="M809.972 221.975C810.409 222.369 810.833 222.776 811.245 223.196C818.292 230.476 816.29 239.917 804.442 238.729C801.962 237.018 799.66 235.054 797.325 233.145C801.503 229.38 805.719 225.656 809.972 221.975Z"/><path fill="#072363" d="M842.408 247.885C843.294 253.41 833.093 290.413 831.02 298.108C841.002 291.12 851.132 284.346 861.403 277.791L864.682 282.827C850.717 291.196 836.738 302.307 821.769 311.309C821.442 307.99 831.541 268.751 832.985 262.187C822.58 268.638 813.453 275.64 802.655 281.819C801.442 280.21 800.325 278.334 799.246 276.617C813.034 268.183 828.518 256.94 842.408 247.885Z"/><path fill="#072363" d="M360.646 115.985C362.201 116.837 381.21 157.635 383.577 163.176C368.51 157.728 350.208 149.493 334.545 143.465C338.596 152.555 345.936 166.545 348.151 175.938C347.575 177.279 346.875 177.254 345.242 178.155C344.282 178.327 344.808 178.34 343.677 177.946C339.784 173.036 325.74 138.911 322.815 131.463C339.178 137.084 354.669 145.034 370.797 150.737C365.692 140.225 359.849 128.998 355.805 118.106L360.646 115.985Z"/><path fill="#072363" d="M169.799 637.502C169.843 637.571 169.909 637.63 169.931 637.709C170.556 639.969 155.019 677.484 152.409 684.603C163.184 680.331 174.233 674.921 184.681 669.846C185.611 671.411 186.597 673.682 187.393 675.374C172.735 683.095 155.871 690.427 140.72 697.711C143.727 685.916 154.325 662.308 159.139 649.873C148.16 654.338 137.29 659.75 126.586 664.87C125.579 662.987 124.762 661 123.907 659.041C138.972 652.71 154.612 644.154 169.799 637.502Z"/><path fill="#072363" d="M837.566 337.294C855.415 337.919 877.711 340.201 895.791 341.585L871.168 365.347C866.023 370.599 860.67 375.643 855.121 380.467C854.164 378.245 853.239 376.009 852.345 373.761C855.675 370.586 859.051 367.459 862.472 364.382C859.827 358.051 857.315 351.666 854.938 345.23C849.861 344.592 844.986 344.264 839.892 343.9L837.566 337.294Z"/><path fill="#FBFBFA" d="M861.064 345.471C867.004 345.445 875.367 346.255 881.594 346.552L875.186 352.537L867.006 360.005C864.948 355.312 862.995 350.242 861.064 345.471Z"/><path fill="#072363" d="M142.813 524.703C144.231 524.367 145.214 524.294 146.244 525.236C145.616 528.005 118.402 558.524 113.923 563.593C124.884 563.263 139.404 561.453 150.491 560.382L150.531 566.901C135.469 567.893 120.444 569.477 105.395 570.71C103.173 570.959 102.848 571.021 100.67 570.732L100.377 570.247C102.981 566.173 109.051 559.472 112.389 555.662C119.226 547.952 125.99 540.179 132.682 532.343C123.297 534.039 106.985 534.782 96.945 535.642L96.535 529.686C111.337 527.613 127.713 526.421 142.813 524.703Z"/><path fill="#072363" d="M623.38 103.887C624.581 105.092 631.519 153.735 632.332 158.953L625.241 157.202L623.327 143.668C617.306 142.105 612.024 140.416 606.112 138.503C605.109 138.217 604.823 138.239 603.776 138.129C600.061 139.78 596.728 144.895 594.154 148.265L587.278 146.089C598.203 132.353 611.86 117.516 623.38 103.887Z"/><path fill="#FBFBFA" d="M619.346 117.337C621.261 119.452 622.284 133.939 622.665 137.899C619.747 136.709 615.959 135.549 612.909 134.528L606.913 132.581C610.662 127.644 615.364 122.183 619.346 117.337Z"/><path fill="#072363" d="M154.692 331.257C165.365 330.77 178.529 331.04 189.386 330.995C188.513 333.319 187.565 335.266 186.509 337.501L172.096 337.491C168.76 343.918 166.009 349.67 163.96 356.615C166.504 359.61 169.207 362.544 171.693 365.562C172.781 366.883 172.507 366.696 172.234 368.117L170.088 373.199C157.295 360.156 145.457 344.831 132.563 331.438L154.692 331.257Z"/><path fill="#FBFBFA" d="M147.49 337.789C153.422 337.421 159.634 337.518 165.595 337.505C163.637 341.327 161.851 345.384 160.063 349.299C159.237 351.032 159.847 350.572 158.508 351.383C155.94 349.057 147.265 341.157 146.418 338.283L147.49 337.789Z"/><path fill="#072363" d="M303.674 142.909C307.318 144.311 318.284 164.964 321.928 169.127C333.309 182.126 319.92 202.032 304.004 198.008C294.236 195.538 284.027 174.955 278.816 166.176C277.73 164.355 276.684 162.372 275.656 160.505L281.407 157.413C285.16 163.68 297.877 186.655 302.893 189.898C305.336 191.508 308.333 192.04 311.181 191.37C333.32 186.159 303.32 156.584 300.094 145.592C300.654 144.326 302.356 143.657 303.674 142.909Z"/><path fill="#072363" d="M191.457 683.48C195.144 686.042 204.243 703.228 206.761 707.871C192.256 716.263 177.679 724.53 163.032 732.671C158.19 725.334 153.225 716.638 148.68 709.041L154.5 706.352L157.043 711.07C159.45 714.929 162.066 719.911 164.326 723.944C169.162 721.931 173.73 719.232 178.308 716.674C175.381 710.841 172.028 705.302 168.724 699.675L173.018 696.813C176.583 701.997 180.169 707.77 183.6 713.088L198.107 705.318C194.403 698.862 190.561 693.167 186.94 686.44L191.457 683.48Z"/><path fill="#072363" d="M97.0997 481.465C98.9675 481.462 101.143 481.748 103.026 481.94C102.99 487.832 102.617 495.583 102.072 501.412C107.48 501.983 111.97 502.367 117.421 502.622C117.89 496.56 118.394 490.501 118.935 484.445C121.003 484.517 123.205 484.707 125.282 484.848C124.308 490.76 123.917 497.375 123.418 503.388C129.162 503.99 134.473 504.256 140.229 504.541C140.632 499.673 140.849 494.288 141.137 489.376C141.197 487.493 141.131 486.876 141.724 485.045C143.488 483.136 144.65 482.483 147.198 483.541C149.12 486.487 146.494 507.062 145.824 511.538L95.4692 507.868C95.5451 499.929 96.5432 489.558 97.0997 481.465Z"/><path fill="#072363" d="M840.744 679.468C842.282 679.671 842.422 680.11 842.918 681.329C842.588 684.102 840.384 686.56 837.967 687.489C829.919 690.583 829.213 702.303 838.11 705.959C840.222 706.838 842.599 706.826 844.702 705.927C850.379 703.534 853.316 696.01 855.434 690.722C862.55 695.147 869.854 700.068 876.899 704.661C873.706 711.507 869.186 718.799 865.283 725.298L864.69 725.8C863.124 725.531 861.185 723.882 859.809 722.898C862.847 717.613 865.96 712.371 869.145 707.173C865.655 704.603 862.119 702.095 858.539 699.649C853.664 708.277 847.182 717.278 835.851 712.326C831.501 710.375 828.121 706.755 826.471 702.283C821.79 689.859 830.103 683.064 840.744 679.468Z"/><path fill="#072363" d="M570.237 92.1594C578.252 91.8276 583.134 94.4773 589.77 98.2518L588.42 105.017C584.448 102.134 580.854 99.6967 575.919 98.7284C570.782 97.691 565.447 98.8957 561.254 102.04C552.519 108.492 550.135 121.825 556.801 130.619C560.739 135.814 566.3 137.81 572.533 138.645C576.409 137.945 579.901 136.924 583.681 135.872L583.483 141.98C574.171 144.66 564.139 146.236 556.282 139.468C537.064 122.912 545.56 95.6699 570.237 92.1594Z"/><path fill="#072363" d="M215.353 214.483C217.284 215.044 219.022 217.534 220.303 219.114C219.288 219.5 218.279 219.902 217.276 220.319C210.794 222.973 205.509 226.184 202.741 233.018C198.51 243.46 205.663 255.874 215.935 259.243C220.613 260.762 225.706 260.334 230.066 258.056C236.872 254.529 239.798 248.574 242.022 241.724L246.736 244.29C246.46 246.036 246.041 247.954 245.701 249.705C243.094 256.083 239.136 261.083 232.833 264.22C226.706 267.279 219.599 267.712 213.146 265.421C206.2 262.882 200.258 257.095 197.321 250.337C194.551 244.091 194.415 236.992 196.943 230.643C200.501 221.922 207.223 217.934 215.353 214.483Z"/><path fill="#072363" d="M918.604 454.211L923.879 453.87C924.477 462.397 925.167 470.916 925.949 479.428L919.939 479.845C919.307 473.708 918.876 467.068 918.431 460.897C913.506 461.093 907.789 461.441 902.933 461.99C903.053 466.461 904.344 475.213 903.17 478.907C901.586 479.69 902.448 479.426 900.337 479.213C895.814 476.297 898.501 467.014 896.875 462.486C891.351 462.407 885 462.908 879.425 463.216C879.691 467.706 881.773 480.142 879.396 483.234C877.499 483.679 877.524 483.605 875.688 483.323C873.993 481.241 873.568 461.429 873.495 457.377C887.439 455.904 904.36 455.204 918.604 454.211Z"/><path fill="#072363" d="M881.755 490.958C883.701 492.968 884.209 494.204 885.53 496.638C883.376 500.275 881.052 504.026 881.421 508.442C881.888 514.032 887.68 517.114 892.889 516.371C895.453 516.022 897.768 514.657 899.314 512.582C903.176 507.404 901.729 499.844 900.889 493.913C908.711 495.467 917.978 496.697 925.891 497.64C925.905 503.928 926.792 515.863 926.346 521.412C914.979 523.528 924.36 511.208 919.411 505.474C916.194 501.746 912.169 501.786 907.584 501.308C907.642 510.547 906.452 520.769 895.406 522.828C890.653 523.673 885.759 522.576 881.821 519.784C870.748 511.834 875.176 500.017 881.755 490.958Z"/><path fill="#072363" d="M819.49 714.677C820.751 715.016 821.594 716.534 821.624 717.598C821.752 722.105 813.674 721.535 811.14 725.729C807.22 732.215 812.723 742.137 820.747 739.28C825.53 737.614 826.587 735.593 828.833 731.483L833.405 733.413C831.749 737.952 829.629 742.722 832.477 747.403C834.733 751.109 838.972 750.289 841.603 747.517C845.349 743.571 845.077 739.94 844.981 734.931L850.306 737.081C853.974 756.271 831.183 764.759 825.66 744.912C824.843 745.125 824.024 745.328 823.202 745.522C807.24 749.255 798.283 734.323 806.659 720.937C809.496 716.404 814.548 715.431 819.49 714.677Z"/><path fill="#072363" d="M719.074 144.714C726.192 148.298 735.324 154.257 742.234 158.569C741.2 160.292 739.975 162.071 738.86 163.757C733.334 160.135 727.556 156.81 721.864 153.447C719.537 156.892 717.134 160.949 714.913 164.51C720.014 168.224 726.196 171.285 731.735 174.485C730.793 176.161 730.038 177.903 728.508 179.006C726.326 179.024 726.731 178.819 724.524 177.58L711.351 170.003C707.157 176.444 702.932 183.565 698.863 190.14L693.019 187.289C701.781 173.332 710.543 158.812 719.074 144.714Z"/><path fill="#072363" d="M208.538 722.546C222.246 723.261 224.958 732.759 225.599 744.472L219.024 744.621C219.171 735.99 218.612 730.629 209.311 728.559C193.737 736.814 212.762 748.153 198.254 760.674C184.789 766.737 178.354 757.27 178.491 744.589L184.896 745.106C185.144 749.11 185.545 759.312 192.577 756.559C202.985 752.482 192.894 737.904 197.837 729.973C200.893 725.07 203.144 724.302 208.538 722.546Z"/><path fill="#072363" d="M161.854 275.319C165.323 278.5 172.175 298.63 175.955 302.278C180.313 306.482 190.73 312.423 196.351 316.202L192.814 321.231C187.318 318.134 181.615 314.082 176.371 310.507C169.871 307.013 150.949 307.791 142.772 307.724C143.74 305.389 144.777 303.142 145.825 300.845C153.474 301.278 161.127 301.649 168.782 301.956C165.79 295.376 161.524 287.474 158.271 280.726L161.854 275.319Z"/><path fill="#072363" d="M450.498 93.5681C452.329 93.3319 451.705 93.1577 453.255 93.7398C453.745 97.0813 444.61 115.582 444.477 121.303C444.288 129.44 446.418 137.015 448.1 144.931L441.785 146.188C440.433 138.349 439.077 125.088 434.173 119.472C428.137 113.181 421.636 106.406 416.166 99.6592C418.548 99.3266 421.239 98.7839 423.637 98.3611L438.932 116.016C442.061 109.158 443.72 102.169 446.878 95.4267C447.59 93.9057 448.914 93.9477 450.498 93.5681Z"/><path fill="#072363" d="M112.412 608.98L113.956 609.175C115.863 610.975 117.637 619.543 118.374 622.524C128.318 619.532 152.531 611.662 161.475 610.234L163.139 616.178C158.019 617.912 151.856 619.604 146.611 621.179C137.844 623.608 129.13 626.222 120.474 629.021C121.879 633.725 122.877 637.389 123.93 642.193L118.328 643.802C116.64 638.024 109.63 615.336 109.101 610.624C110.074 609.424 110.661 609.572 112.412 609.572Z"/><path fill="#072363" d="M919.572 531.901C921.38 532.055 923.739 532.442 925.586 532.687C925.415 542.196 923.67 557.696 922.873 567.627C920.613 567.575 918.436 567.394 916.184 567.226C916.954 562.092 917.384 558.27 917.737 553.082C911.208 552.068 901.205 551.481 894.383 550.867C887.896 549.966 880.785 549.776 873.958 548.849C873.977 546.664 874.219 544.534 874.419 542.358C889.001 543.488 903.75 545.399 918.435 546.66C918.677 541.948 919.266 536.729 919.572 531.901Z"/><path fill="#072363" d="M405.455 102.06L406.479 102.292C407.687 103.802 407.836 106.05 408.192 108.025C404.479 109.2 400.475 110.271 396.711 111.348C400.995 125.958 404.933 139.619 410.021 153.987L403.424 155.748L400.466 145.89C397.426 135.082 393.745 124.117 390.627 113.123C386.886 114.028 382.662 115.311 378.937 116.38L377.181 110.654C386.723 107.887 395.973 104.92 405.455 102.06Z"/><path fill="#072363" d="M145.834 446.306L152.355 446.853C151.015 455.006 149.906 462.899 149.411 471.165C135.043 469.761 119.976 467.171 105.584 465.145C103.084 464.748 100.433 464.546 97.9033 464.301L98.6111 457.974C113.622 459.688 128.611 461.592 143.574 463.685C144.68 457.915 145.205 452.144 145.834 446.306Z"/><path fill="#072363" d="M660.322 117.149C662.56 117.664 664.392 118.529 666.508 119.41C661.442 132.534 654.963 146.91 649.456 160.01C654.133 161.731 660.143 164.46 664.842 166.436L662.657 172.259C655.46 169.238 648.241 166.272 640.999 163.361C645.257 149.957 654.817 130.978 660.322 117.149Z"/><path fill="#072363" d="M896.414 616.402C899.123 618.533 905.466 633.85 907.314 638.03C894.664 633.842 880.402 630.611 867.421 626.91C864.311 626.109 860.86 625.01 857.748 624.093C858.207 622.104 858.605 619.941 859.017 617.927C871.366 621.355 883.755 624.633 896.183 627.759C894.95 624.894 892.962 621.951 893.083 619.135C894.211 617.227 894.19 617.68 896.414 616.402Z"/><path fill="#072363" d="M874.763 301.866L875.961 302.011C877.568 303.559 878.209 305.421 879.169 307.474C864.251 314.029 849.518 321.328 834.567 328.03C833.868 328.363 834.32 328.211 833.157 328.26C831.713 326.831 830.958 324.521 830.137 322.596C841.699 318.09 863.47 307.488 874.763 301.866Z"/><path fill="#072363" d="M150.794 580.668C151.242 580.576 152.497 580.546 153.007 580.52C154.673 582.167 154.699 584.217 155.21 586.72C139.967 589.464 123.589 591.299 108.597 594.7C107.141 594.972 107.139 595.105 105.783 594.612C104.454 593.199 104.348 590.819 104.002 588.805C119.695 585.722 135.018 583.265 150.794 580.668Z"/><path fill="#072363" d="M696.326 132.903L701.894 135.674C694.843 150.416 687.143 165.207 679.844 179.886L673.935 177.285C680.946 163.16 688.429 146.191 696.326 132.903Z"/><path fill="#D59D47" d="M498.406 109.738C501.196 108.962 504.187 109.762 506.217 111.827C508.247 113.892 508.996 116.896 508.173 119.672C507.349 122.449 505.084 124.559 502.256 125.183C498.044 126.113 493.858 123.52 492.814 119.335C491.771 115.149 494.25 110.894 498.406 109.738Z"/><path fill="#D59D47" d="M879.084 398.765C883.276 397.457 887.733 399.808 889.021 404.006C890.31 408.204 887.939 412.65 883.735 413.919C879.558 415.18 875.147 412.828 873.867 408.657C872.587 404.486 874.919 400.064 879.084 398.765Z"/><path fill="#DDAA5A" d="M413.702 194.446C416.614 198.483 419.637 203.211 422.428 206.998C421.434 203.428 418.853 196.484 419.792 193.33L420.465 192.994C421.824 195.284 423.657 199.856 424.969 202.502C427.07 206.741 427.937 207.408 430.442 211.05C427.811 211.961 427.703 212.298 424.894 212.294L424.378 212.803C422.882 211.887 420.668 209.545 419.331 208.234C416.488 203.057 415.239 200.153 413.702 194.446Z"/><path fill="#DDAA5A" d="M427.07 190.946C429.774 199.137 430.996 204.521 436.686 211.17C434.027 211.596 432.458 213.148 430.442 211.05L431.009 210.616C426.531 203.215 426.708 199.84 427.07 190.946Z"/><path fill="#DDAA5A" d="M576.026 200.298C583.469 199.359 594.325 189.283 599.44 184.126C593.223 196.525 589.882 194.213 583.099 201.655C582.224 202.129 582.359 201.97 581.272 202.077C578.984 200.996 578.495 200.767 576.026 200.298Z"/><path fill="#072363" d="M872.678 572.218C874.706 571.52 876.916 572.59 877.628 574.613C878.34 576.636 877.286 578.854 875.268 579.58C873.23 580.313 870.984 579.246 870.266 577.203C869.547 575.16 870.629 572.922 872.678 572.218Z"/><path fill="#DDAA5A" d="M412.892 203.583C414.644 205.343 416.454 207.044 418.319 208.684L419.331 208.234C420.668 209.545 422.882 211.887 424.378 212.803L423.497 214.274L420.595 216.645C418.486 214.93 417.803 214.696 417.144 212.232L417.701 212.723C416.388 208.766 415.168 207.123 412.892 203.583Z"/><path fill="#EFD2A8" d="M419.331 208.234C420.668 209.545 422.882 211.887 424.378 212.803L423.497 214.274L418.319 208.684L419.331 208.234Z"/></svg>
